PathFileType	4	(X/Y/Z)	C:/Users/beibeiliu/ov580/test_trc/User1\sequence.13_training_dense_left.trc
DataRate	CameraRate	NumFrames	NumMarkers	Units	OrigDataRate	OrigDataStartFrame	OrigNumFrames
120	120	7	19	mm	120	119	316
Frame#	Time	ThumbCMC			ThumbMCP			ThumbIP			ThumbTip			IndexMCP			IndexPIP			IndexTip			MiddleMCP			MiddlePIP			MiddleTip			RingMCP			RingPIP			RingTip			PinkyMCP			PinkyPIP			PinkyTip			BackHand1			BackHand2			BackHand3	
		X0	Y0	Z0	X1	Y1	Z1	X2	Y2	Z2	X3	Y3	Z3	X4	Y4	Z4	X5	Y5	Z5	X6	Y6	Z6	X7	Y7	Z7	X8	Y8	Z8	X9	Y9	Z9	X10	Y10	Z10	X11	Y11	Z11	X12	Y12	Z12	X13	Y13	Z13	X14	Y14	Z14	X15	Y15	Z15	X16	Y16	Z16	X17	Y17	Z17	X18	Y18	Z18	
118	0.983333	-157.985	20.8562	18.1587	-131.97	11.2664	-10.2474	-126.62	1.66862	-33.9934	-116.318	-12.9257	-55.4748	-169.71	22.9737	-62.8265	-149.113	-1.10259	-75.9246	-138.029	-22.468	-53.5169	-205.813	16.2097	-65.0408	-202.254	14.9375	-93.3064	-199.896	7.20178	-124.452	-227.141	-3.60147	-57.04	-232.778	-2.00161	-80.1335	-236.003	-3.31099	-109.433	-229.935	-31.7591	-33.1908	-240.064	-35.9593	-48.5586	-254.727	-31.8885	-69.3104	-222.129	-2.07189	1.24918	-221.026	-1.53984	35.4551	-196.951	26.0673	16.4175	
119	0.991667	-162.618	29.1224	13.9442	-132.843	24.1914	-12.0811	-122.904	13.8398	-36.7862	-114.643	-3.18458	-55.6087	-173.441	25.0946	-63.0458	-149.314	5.9281	-77.8694	-130.943	-12.6888	-52.4608	-208.917	7.57387	-69.9829	-203.893	5.53263	-100.474	-199.007	-0.718726	-129.7	-222.743	-12.5902	-58.1763	-226.193	-12.6385	-85.0434	-227.733	-20.1922	-109.306	-219.82	-40.6965	-36.3133	-227.149	-50.0285	-52.4802	-238.724	-51.2347	-75.4488	-220.978	-7.55631	-4.59039	-220.721	-6.6969	30.5151	-205.228	23.4453	12.7483	
120	1	-166.721	39.2834	12.4605	-139.384	32.6041	-10.1677	-124.952	23.4706	-35.276	-112.112	11.5291	-51.0863	-174.786	22.1317	-69.8479	-148.962	8.53184	-78.7978	-125.623	-1.29027	-55.4559	-206.182	-0.485217	-69.1361	-199.538	-2.51699	-101.25	-193.068	-10.9096	-126.988	-213.234	-19.5117	-56.2529	-215.929	-25.4523	-84.5475	-214.162	-35.3954	-113.625	-207.117	-46.4177	-39.0897	-211.161	-57.5196	-57.0555	-219.259	-64.7135	-72.2491	-216.002	-13.4194	-1.95342	-216.976	-9.90207	29.6947	-206.691	25.0582	4.27494	
121	1.00833	-172.47	45.4097	7.53311	-142.859	42.7636	-11.5975	-126.881	36.5317	-36.4683	-109.7	23.1203	-56.6838	-175.485	19.8724	-71.4652	-146.73	12.5122	-80.2978	-122.295	6.32731	-52.6177	-199.951	-7.01304	-75.8241	-193.462	-7.1351	-99.9502	-184.92	-19.1752	-127.011	-202.4	-31.4778	-58.6016	-201.243	-39.4126	-86.8538	-194.057	-46.2055	-111.675	-192.691	-51.5055	-33.7879	-192.169	-64.4163	-51.1294	-194.833	-75.3891	-71.5909	-209.23	-16.1682	-7.29189	-213.453	-11.9365	29.547	-210.899	21.1498	3.35492	
122	1.01667	-181.81	44.8669	6.5953	-151.319	50.0969	-16.8092	-130.425	48.8844	-40.3775	-112.655	38.1003	-56.1606	-174.757	20.4954	-75.0698	-146.747	18.9888	-82.1522	-121.711	21.7265	-60.5541	-193.855	-12.3046	-75.4418	-184.424	-14.059	-102.444	-171.565	-20.025	-130.435	-189.216	-36.0129	-61.6445	-184.346	-44.1544	-87.8857	-173.997	-50.0889	-108.569	-175.237	-55.2243	-36.2272	-170.537	-63.6519	-49.3321	-168.206	-74.139	-72.0729	-203.081	-22.7207	-8.96364	-212.142	-14.5229	26.8001	-212.34	18.4852	-0.381454	
123	1.025	-188.271	50.0283	0.345771	-156.589	56.9016	-20.4453	-137.08	54.2053	-39.9798	-114.936	51.2536	-52.2294	-176.42	23.1425	-74.297	-142.169	23.6122	-82.6874	-119.314	33.216	-58.2486	-186.501	-12.3167	-76.4044	-173.804	-17.9845	-102.242	-160.294	-18.8505	-128.209	-180.23	-31.9997	-58.9493	-170.068	-42.4595	-87.0086	-157.801	-46.2207	-110.331	-163.262	-47.8807	-32.099	-152.293	-58.0618	-49.3258	-147.12	-72.1358	-64.659	-198.283	-22.9322	-5.0137	-208.869	-14.4791	22.3218	-214.001	11.3791	-0.352927	
124	1.03333	-191.522	48.9498	0.511298	-160.236	57.7918	-16.6072	-138.403	62.0681	-37.9809	-117.689	58.6987	-48.5903	-173.729	22.2527	-73.3472	-142.758	26.6265	-81.3536	-118.981	38.0292	-58.6198	-181.237	-7.86459	-76.0131	-165.462	-12.5261	-103.122	-151.152	-12.524	-127.028	-171.872	-31.1486	-59.0611	-162.17	-35.487	-85.1912	-145.898	-36.8018	-110.783	-153.208	-44.6584	-29.8355	-139.631	-52.0891	-47.6824	-131.319	-64.4571	-65.7092	-195.985	-20.1798	-10.6547	-207.99	-16.9974	24.2661	-212.654	12.1703	-1.8852	
